<?xml version="1.0" encoding="UTF-8"?>
<svg width="221px" height="221px" viewBox="0 0 221 221" version="1.1" xmlns="http://www.w3.org/2000/svg" xmlns:xlink="http://www.w3.org/1999/xlink">
    <!-- Generator: Sketch 57.1 (83088) - https://sketch.com -->
    <title>Group 121</title>
    <desc>Created with Sketch.</desc>
    <g id="Page-1" stroke="none" stroke-width="1" fill="none" fill-rule="evenodd">
        <g id="Desktop-HD" transform="translate(-610.000000, -402.000000)" fill="#FEFEFE">
            <g id="Group-121" transform="translate(610.000000, 402.000000)">
                <path d="M136.3755,10.9439 C136.1695,11.8279 135.8775,12.4849 135.5025,12.9139 C134.8075,13.6939 133.7795,13.9249 132.4185,13.6079 C131.6335,13.4239 131.0115,13.0539 130.5535,12.4989 C130.0965,11.9439 129.9945,11.1209 130.2485,10.0319 L130.4235,9.2829 L131.7575,9.5949 L131.5825,10.3429 C131.4495,10.9139 131.4765,11.3729 131.6645,11.7199 C131.8525,12.0679 132.2155,12.3039 132.7535,12.4299 C133.5115,12.6069 134.0665,12.4629 134.4225,11.9989 C134.6395,11.7149 134.8515,11.1299 135.0575,10.2449 L136.6875,3.2619 L138.0935,3.5899 L136.3755,10.9439 Z" id="Fill-1"></path>
                <path d="M145.5044,14.6866 C146.3424,13.9966 146.9504,13.0826 147.3324,11.9486 C147.7344,10.7486 147.7454,9.6776 147.3634,8.7346 C146.9834,7.7916 146.2484,7.1376 145.1604,6.7726 C144.1054,6.4176 143.1224,6.4916 142.2124,6.9926 C141.3024,7.4946 140.6094,8.4516 140.1354,9.8636 C139.7564,10.9946 139.7214,12.0436 140.0324,13.0116 C140.3444,13.9796 141.1414,14.6786 142.4224,15.1096 C143.6404,15.5186 144.6674,15.3766 145.5044,14.6866 M148.9064,8.5946 C149.2784,9.7246 149.2294,10.9926 148.7564,12.3996 C148.2444,13.9226 147.4344,15.0586 146.3204,15.8086 C145.0164,16.6886 143.5244,16.8466 141.8434,16.2826 C140.2744,15.7556 139.2154,14.8226 138.6644,13.4836 C138.1994,12.2156 138.2244,10.8176 138.7364,9.2896 C139.1994,7.9106 139.9394,6.8456 140.9534,6.0936 C142.2564,5.1306 143.7684,4.9376 145.4894,5.5156 C147.2904,6.1206 148.4294,7.1466 148.9064,8.5946" id="Fill-3"></path>
                <path d="M150.6265,15.5255 C150.4005,16.0935 150.3205,16.6025 150.3835,17.0495 C150.5095,17.8925 151.1055,18.5585 152.1745,19.0495 C152.6525,19.2695 153.1215,19.3995 153.5805,19.4385 C154.4675,19.5125 155.0745,19.1945 155.4005,18.4845 C155.6455,17.9525 155.6585,17.4995 155.4395,17.1245 C155.2155,16.7525 154.7925,16.3245 154.1715,15.8405 L153.0255,14.9515 C152.2775,14.3715 151.7835,13.8835 151.5435,13.4885 C151.1295,12.8035 151.1075,12.0555 151.4805,11.2435 C151.8855,10.3645 152.5125,9.7795 153.3625,9.4875 C154.2135,9.1965 155.1805,9.2995 156.2645,9.7975 C157.2615,10.2555 157.9945,10.8925 158.4655,11.7075 C158.9355,12.5225 158.9205,13.4735 158.4205,14.5605 L157.1765,13.9885 C157.3535,13.4365 157.4005,12.9715 157.3205,12.5965 C157.1685,11.9085 156.6295,11.3515 155.7015,10.9255 C154.9525,10.5815 154.3385,10.4985 153.8605,10.6755 C153.3825,10.8535 153.0435,11.1605 152.8435,11.5945 C152.6235,12.0745 152.6555,12.5135 152.9395,12.9135 C153.1295,13.1715 153.6215,13.6125 154.4175,14.2365 L155.6025,15.1595 C156.1735,15.6055 156.5725,16.0385 156.8015,16.4605 C157.1925,17.1935 157.1885,17.9955 156.7895,18.8645 C156.2915,19.9475 155.5525,20.5455 154.5705,20.6585 C153.5885,20.7715 152.5885,20.5945 151.5715,20.1275 C150.3865,19.5825 149.6005,18.8455 149.2155,17.9155 C148.8275,16.9905 148.8835,16.0035 149.3815,14.9535 L150.6265,15.5255 Z" id="Fill-5"></path>
                <polygon id="Fill-7" points="162.6821 13.2272 169.4221 17.1672 168.7571 18.3062 163.2441 15.0822 161.5941 17.9022 166.6911 20.8822 166.0631 21.9562 160.9661 18.9772 159.1251 22.1262 164.7341 25.4052 164.0871 26.5112 157.2521 22.5162"></polygon>
                <path d="M175.6274,23.3297 C175.4564,23.0197 175.1464,22.7007 174.6934,22.3737 L172.3614,20.6847 L170.1754,23.7047 L172.5084,25.3927 C173.0334,25.7737 173.5424,25.9707 174.0334,25.9827 C174.5234,25.9947 174.9774,25.7157 175.3894,25.1467 C175.8524,24.5057 175.9324,23.9007 175.6274,23.3297 L175.6274,23.3297 Z M171.9164,18.8157 L175.8154,21.6397 C176.5864,22.1977 177.0514,22.8677 177.2084,23.6477 C177.3654,24.4277 177.1584,25.2137 176.5854,26.0037 C176.0924,26.6837 175.4524,27.1237 174.6644,27.3217 C173.8754,27.5187 173.0464,27.3027 172.1744,26.6717 L169.4534,24.7007 L166.7854,28.3847 L165.6064,27.5297 L171.9164,18.8157 Z" id="Fill-9"></path>
                <polygon id="Fill-11" points="180.5288 25.2281 181.6278 26.2081 178.6688 29.5261 182.7948 33.2071 185.7548 29.8891 186.8518 30.8691 179.6898 38.8981 178.5918 37.9181 181.9418 34.1631 177.8148 30.4821 174.4658 34.2371 173.3668 33.2571"></polygon>
                <path d="M191.3149,42.4181 C191.7149,42.8931 192.0919,43.2081 192.4459,43.3621 C193.0009,43.6041 193.5449,43.5001 194.0789,43.0501 C194.6169,42.5961 194.7929,42.0701 194.6079,41.4721 C194.5029,41.1351 194.2429,40.7211 193.8289,40.2301 L192.1349,38.2221 L189.5879,40.3701 L191.3149,42.4181 Z M187.8359,45.9951 C188.4169,46.6851 189.0289,47.0101 189.6719,46.9701 C190.0789,46.9441 190.4589,46.7821 190.8129,46.4821 C191.4109,45.9791 191.5899,45.3671 191.3519,44.6451 C191.2269,44.2611 190.9649,43.8341 190.5689,43.3621 L188.6859,41.1291 L185.7919,43.5701 L187.8359,45.9951 Z M192.1449,36.3461 L195.1429,39.9031 C195.9609,40.8731 196.2539,41.8041 196.0239,42.6991 C195.8869,43.2261 195.5969,43.6761 195.1529,44.0511 C194.6329,44.4881 194.0849,44.6991 193.5029,44.6851 C193.1979,44.6791 192.8519,44.5941 192.4639,44.4301 C192.6589,44.9871 192.7449,45.4551 192.7189,45.8341 C192.6719,46.5061 192.3329,47.1071 191.7019,47.6401 C191.1719,48.0861 190.5509,48.3241 189.8399,48.3511 C188.7769,48.3931 187.7859,47.8691 186.8679,46.7801 L183.9189,43.2811 L192.1449,36.3461 Z" id="Fill-13"></path>
                <polygon id="Fill-15" points="199.0962 44.8463 203.5232 51.2783 202.4372 52.0253 198.8162 46.7643 196.1252 48.6163 199.4722 53.4793 198.4462 54.1853 195.1002 49.3223 192.0942 51.3893 195.7782 56.7413 194.7222 57.4683 190.2332 50.9463"></polygon>
                <path d="M203.0864,60.4215 C203.4064,61.0045 203.7774,61.4005 204.2034,61.6085 C204.6294,61.8175 205.1544,61.7505 205.7804,61.4075 C206.4534,61.0405 206.7814,60.5515 206.7664,59.9435 C206.7554,59.6185 206.6334,59.2445 206.4004,58.8195 L204.7394,55.7825 L201.5144,57.5475 L203.0864,60.4215 Z M205.1394,53.9025 L207.4864,58.1925 C207.8734,58.8995 208.0864,59.5395 208.1274,60.1125 C208.2014,61.2045 207.6964,62.0465 206.6124,62.6385 C206.0474,62.9485 205.5214,63.0845 205.0334,63.0485 C204.5454,63.0115 204.0784,62.8435 203.6294,62.5435 C203.6824,62.9935 203.6364,63.3785 203.4944,63.6985 C203.3524,64.0185 203.0124,64.3385 202.4764,64.6605 L201.2344,65.3985 C200.8814,65.6085 200.6314,65.7845 200.4814,65.9275 C200.2234,66.1685 200.1064,66.4115 200.1274,66.6555 L199.9154,66.7715 L199.0574,65.2035 C199.1154,65.1155 199.2014,65.0245 199.3164,64.9285 C199.4304,64.8325 199.6674,64.6745 200.0254,64.4565 L201.5594,63.5175 C202.1584,63.1505 202.4504,62.7025 202.4334,62.1715 C202.4184,61.8705 202.2734,61.4665 201.9944,60.9595 L200.4474,58.1305 L196.3994,60.3455 L195.6994,59.0675 L205.1394,53.9025 Z" id="Fill-17"></path>
                <path d="M207.8638,70.5318 C208.1178,71.1448 208.4458,71.5778 208.8478,71.8308 C209.2488,72.0828 209.7778,72.0728 210.4358,71.7988 C211.1438,71.5048 211.5228,71.0538 211.5728,70.4478 C211.5958,70.1238 211.5148,69.7388 211.3288,69.2908 L210.0008,66.0948 L206.6058,67.5068 L207.8638,70.5318 Z M210.5968,64.2678 L212.4748,68.7838 C212.7838,69.5278 212.9278,70.1868 212.9088,70.7608 C212.8658,71.8538 212.2738,72.6368 211.1338,73.1118 C210.5378,73.3588 210.0008,73.4388 209.5188,73.3498 C209.0378,73.2618 208.5908,73.0448 208.1768,72.6988 C208.1798,73.1518 208.0938,73.5308 207.9188,73.8328 C207.7438,74.1358 207.3718,74.4188 206.8038,74.6808 L205.4918,75.2818 C205.1188,75.4538 204.8498,75.6018 204.6858,75.7288 C204.4038,75.9408 204.2598,76.1698 204.2568,76.4148 L204.0338,76.5078 L203.3478,74.8568 C203.4148,74.7768 203.5098,74.6948 203.6348,74.6118 C203.7588,74.5278 204.0098,74.3968 204.3908,74.2178 L206.0138,73.4478 C206.6498,73.1468 206.9878,72.7318 207.0258,72.2018 C207.0448,71.9018 206.9418,71.4838 206.7198,70.9488 L205.4828,67.9728 L201.2208,69.7438 L200.6628,68.3988 L210.5968,64.2678 Z" id="Fill-19"></path>
                <polygon id="Fill-21" points="214.5122 73.8917 215.0042 75.5187 210.9492 79.9767 216.7952 81.4397 217.2912 83.0807 209.9632 81.0397 205.8132 82.2957 205.3912 80.9007 209.5412 79.6447"></polygon>
                <polygon id="Fill-23" points="212.6216 89.5611 213.2846 93.1781 211.9516 93.4221 211.2876 89.8061"></polygon>
                <path d="M212.9136,104.7604 C212.0086,104.8324 211.2936,104.7544 210.7716,104.5264 C209.8166,104.1024 209.2836,103.1934 209.1726,101.7994 C209.1086,100.9954 209.2716,100.2914 209.6626,99.6864 C210.0526,99.0814 210.8056,98.7344 211.9196,98.6454 L212.6856,98.5844 L212.7956,99.9494 L212.0276,100.0104 C211.4436,100.0574 211.0156,100.2224 210.7416,100.5074 C210.4676,100.7914 210.3526,101.2094 210.3966,101.7604 C210.4596,102.5364 210.7646,103.0224 211.3136,103.2194 C211.6516,103.3394 212.2736,103.3644 213.1786,103.2914 L220.3266,102.7224 L220.4406,104.1604 L212.9136,104.7604 Z" id="Fill-25"></path>
                <path d="M212.1284,114.6036 C213.0394,115.1916 214.0944,115.4966 215.2914,115.5156 C216.5574,115.5356 217.5804,115.2216 218.3634,114.5726 C219.1474,113.9236 219.5474,113.0256 219.5654,111.8776 C219.5844,110.7656 219.2164,109.8506 218.4634,109.1356 C217.7094,108.4196 216.5884,108.0496 215.0984,108.0256 C213.9044,108.0066 212.8954,108.2916 212.0664,108.8816 C211.2384,109.4716 210.8144,110.4416 210.7914,111.7946 C210.7714,113.0786 211.2164,114.0146 212.1284,114.6036 M218.9644,115.9996 C218.0004,116.6976 216.7764,117.0336 215.2934,117.0096 C213.6864,116.9836 212.3574,116.5546 211.3074,115.7216 C210.0724,114.7446 209.4694,113.3706 209.4984,111.5976 C209.5254,109.9426 210.0934,108.6506 211.2014,107.7206 C212.2704,106.8936 213.6094,106.4926 215.2214,106.5196 C216.6764,106.5426 217.9144,106.9236 218.9384,107.6636 C220.2514,108.6126 220.8934,109.9956 220.8634,111.8116 C220.8324,113.7106 220.1994,115.1066 218.9644,115.9996" id="Fill-27"></path>
                <path d="M212.9126,119.7296 C212.3016,119.6906 211.7936,119.7696 211.3866,119.9676 C210.6236,120.3456 210.1726,121.1196 210.0336,122.2876 C209.9726,122.8106 209.9926,123.2946 210.0976,123.7446 C210.2996,124.6116 210.7876,125.0896 211.5636,125.1826 C212.1456,125.2516 212.5806,125.1256 212.8706,124.8016 C213.1546,124.4726 213.4326,123.9396 213.7016,123.1996 L214.1956,121.8356 C214.5176,120.9456 214.8306,120.326602 215.1326,119.9756 C215.6566,119.3716 216.3616,119.1216 217.2496,119.2266 C218.2096,119.3406 218.9596,119.7576 219.4986,120.4766 C220.0376,121.1966 220.2366,122.1486 220.0966,123.3336 C219.9666,124.4226 219.5866,125.3166 218.9556,126.0146 C218.3236,126.7126 217.4146,126.9906 216.2266,126.8496 L216.3886,125.4906 C216.9686,125.4886 217.4246,125.3906 217.7576,125.1996 C218.3656,124.8426 218.7286,124.1586 218.8496,123.1446 C218.9466,122.326602 218.8366,121.7166 218.5206,121.3166 C218.2046,120.9166 217.8086,120.6876 217.3336,120.6306 C216.8096,120.5686 216.4016,120.7346 216.1096,121.1286 C215.9206,121.3866 215.6526,121.9916 215.3036,122.9416 L214.7896,124.3516 C214.5416,125.0336 214.2526,125.5456 213.9206,125.8926 C213.3436,126.4916 212.5796,126.7346 211.6296,126.6216 C210.4456,126.4806 209.6496,125.9606 209.2406,125.0606 C208.8306,124.1606 208.6916,123.1556 208.8236,122.0436 C208.9776,120.7486 209.4376,119.7746 210.2036,119.1226 C210.9646,118.4686 211.9206,118.2176 213.0726,118.3696 L212.9126,119.7296 Z" id="Fill-29"></path>
                <polygon id="Fill-31" points="218.8091 130.4825 217.1331 138.1075 215.8461 137.8245 217.2161 131.5865 214.0261 130.8855 212.7581 136.6515 211.5431 136.3845 212.8101 130.6195 209.2471 129.8365 207.8531 136.1805 206.6011 135.9065 208.3011 128.1725"></polygon>
                <path d="M213.1665,145.9288 C213.4085,145.6718 213.6165,145.2778 213.7895,144.7478 L214.6825,142.0098 L211.1375,140.8558 L210.2445,143.5928 C210.0435,144.2098 210.0125,144.7538 210.1515,145.2258 C210.2915,145.6978 210.6945,146.0408 211.3635,146.2598 C212.1155,146.5038 212.7165,146.3948 213.1665,145.9288 L213.1665,145.9288 Z M216.3245,141.0128 L214.8325,145.5898 C214.5375,146.4948 214.0435,147.1428 213.3485,147.5318 C212.6535,147.9198 211.8425,147.9638 210.9145,147.6608 C210.1155,147.4008 209.5015,146.9258 209.0705,146.2368 C208.6415,145.5468 208.5925,144.6918 208.9265,143.6678 L209.9675,140.4738 L205.6435,139.0648 L206.0945,137.6778 L216.3245,141.0128 Z" id="Fill-33"></path>
                <polygon id="Fill-35" points="212.854 151.1925 212.257 152.5375 208.194 150.7335 205.95 155.7875 210.012 157.5915 209.415 158.9375 199.583 154.5705 200.18 153.2245 204.778 155.2665 207.022 150.2135 202.424 148.1715 203.022 146.8255"></polygon>
                <path d="M199.7739,166.7071 C199.4429,167.2331 199.2579,167.6881 199.2189,168.0721 C199.1579,168.6741 199.4219,169.1611 200.0139,169.5331 C200.6089,169.9061 201.1639,169.9141 201.6779,169.5561 C201.9659,169.3531 202.2819,168.9791 202.6239,168.4361 L204.0209,166.2121 L201.1999,164.4381 L199.7739,166.7071 Z M195.3069,164.4821 C194.8269,165.2461 194.7039,165.9281 194.9379,166.5291 C195.0869,166.9071 195.3569,167.2211 195.7499,167.4671 C196.4109,167.8831 197.0489,167.8671 197.6649,167.4221 C197.9919,167.1851 198.3189,166.8061 198.6469,166.2841 L200.2019,163.8111 L196.9949,161.7971 L195.3069,164.4821 Z M205.8109,165.6491 L203.3349,169.5881 C202.6609,170.6621 201.8619,171.2261 200.9399,171.2791 C200.3969,171.3091 199.8789,171.1701 199.3869,170.8601 C198.8129,170.4991 198.4439,170.0391 198.2809,169.4821 C198.1939,169.1891 198.1689,168.8341 198.2079,168.4151 C197.7369,168.7701 197.3169,168.9941 196.9479,169.0851 C196.2939,169.2441 195.6169,169.1051 194.9189,168.6661 C194.3309,168.2971 193.9169,167.7781 193.6729,167.1091 C193.3099,166.1091 193.5069,165.0061 194.2659,163.7991 L196.7009,159.9251 L205.8109,165.6491 Z" id="Fill-37"></path>
                <polygon id="Fill-39" points="199.8198 174.8702 195.0398 181.0432 193.9968 180.2362 197.9078 175.1862 195.3248 173.1862 191.7108 177.8532 190.7258 177.0922 194.3408 172.4242 191.4568 170.1902 187.4788 175.3272 186.4658 174.5422 191.3128 168.2822"></polygon>
                <path d="M186.2075,183.4005 C185.7505,183.8815 185.4865,184.3575 185.4185,184.8265 C185.3495,185.2955 185.5725,185.7755 186.0895,186.2665 C186.6445,186.7955 187.2095,186.9595 187.7845,186.7585 C188.0905,186.6495 188.4105,186.4205 188.7445,186.0685 L191.1295,183.5605 L188.4665,181.0265 L186.2075,183.4005 Z M193.0415,183.3685 L189.6715,186.9125 C189.1155,187.4955 188.5715,187.8935 188.0375,188.1075 C187.0215,188.5095 186.0645,188.2855 185.1705,187.4345 C184.7035,186.9905 184.4125,186.5305 184.2995,186.0545 C184.1865,185.5795 184.2035,185.0825 184.3535,184.5645 C183.9395,184.7505 183.5595,184.8245 183.2115,184.7875 C182.8625,184.7495 182.4535,184.5235 181.9845,184.1105 L180.9035,183.1525 C180.5965,182.8805 180.3525,182.6955 180.1705,182.5955 C179.8615,182.4235 179.5945,182.3865 179.3695,182.4815 L179.1935,182.3145 L180.4265,181.0195 C180.5255,181.0485 180.6405,181.1035 180.7665,181.1825 C180.8935,181.2615 181.1145,181.4395 181.4325,181.7145 L182.7935,182.8885 C183.3255,183.3485 183.8425,183.4905 184.3425,183.3105 C184.6235,183.2055 184.9645,182.9435 185.3635,182.5245 L187.5855,180.1885 L184.2425,177.0075 L185.2465,175.9525 L193.0415,183.3685 Z" id="Fill-41"></path>
                <path d="M178.0493,191.0265 C177.5433,191.4575 177.2313,191.9025 177.1133,192.3615 C176.9963,192.8205 177.1683,193.3205 177.6293,193.8635 C178.1273,194.4475 178.6713,194.6705 179.2643,194.5315 C179.5793,194.4555 179.9223,194.2605 180.2913,193.9475 L182.9273,191.7045 L180.5453,188.9035 L178.0493,191.0265 Z M184.8493,191.7135 L181.1233,194.8825 C180.5103,195.4045 179.9273,195.7435 179.3733,195.9005 C178.3203,196.1935 177.3933,195.8695 176.5933,194.9285 C176.1763,194.4375 175.9363,193.9495 175.8713,193.4645 C175.8093,192.9805 175.8793,192.4885 176.0823,191.9885 C175.6523,192.1305 175.2663,192.1645 174.9233,192.0895 C174.5803,192.0155 174.1973,191.7485 173.7753,191.2875 L172.8013,190.2215 C172.5243,189.9195 172.3003,189.7095 172.1293,189.5905 C171.8413,189.3865 171.5793,189.3215 171.3453,189.3925 L171.1893,189.2095 L172.5493,188.0505 C172.6473,188.0895 172.7543,188.1555 172.8713,188.2485 C172.9883,188.3395 173.1913,188.5405 173.4783,188.8475 L174.7073,190.1575 C175.1883,190.6725 175.6873,190.8655 176.2033,190.7405 C176.4943,190.6665 176.8623,190.4415 177.3013,190.0665 L179.7573,187.9775 L176.7683,184.4635 L177.8773,183.5175 L184.8493,191.7135 Z" id="Fill-43"></path>
                <polygon id="Fill-45" points="176.8911 198.38 175.4951 199.348 170.0061 196.859 170.4091 202.87 168.9991 203.846 168.6921 196.246 166.2231 192.682 167.4201 191.852 169.8901 195.416"></polygon>
                <polygon id="Fill-47" points="161.4048 201.3907 158.1678 203.1347 157.5248 201.9427 160.7618 200.1987"></polygon>
                <path d="M147.0298,206.3439 C146.6818,205.5039 146.5378,204.8009 146.5938,204.2339 C146.7038,203.1959 147.4058,202.4079 148.6978,201.8749 C149.4438,201.5669 150.1648,201.5059 150.8598,201.6919 C151.5548,201.8769 152.1158,202.4869 152.5438,203.5199 L152.8368,204.2309 L151.5708,204.7539 L151.2768,204.0429 C151.0528,203.5009 150.7638,203.1439 150.4088,202.9709 C150.0548,202.7969 149.6218,202.8169 149.1098,203.0279 C148.3908,203.3239 148.0228,203.7649 148.0048,204.3479 C147.9938,204.7069 148.1618,205.3059 148.5088,206.1449 L151.2458,212.7729 L149.9128,213.3229 L147.0298,206.3439 Z" id="Fill-49"></path>
                <path d="M137.4399,208.6095 C137.1619,209.6585 137.1979,210.7555 137.5479,211.8995 C137.9189,213.1095 138.5339,213.9865 139.3929,214.5315 C140.2519,215.0765 141.2289,215.1795 142.3269,214.8435 C143.3909,214.5175 144.1469,213.8865 144.5949,212.9495 C145.0439,212.0115 145.0489,210.8305 144.6129,209.4055 C144.2639,208.2655 143.6799,207.3925 142.8639,206.7865 C142.0469,206.1795 140.9929,206.0755 139.6999,206.4715 C138.4719,206.8475 137.7189,207.5605 137.4399,208.6095 M138.2199,215.5435 C137.2599,214.8415 136.5619,213.7815 136.1279,212.3615 C135.6569,210.8265 135.6549,209.4295 136.1239,208.1725 C136.6719,206.6975 137.7939,205.6995 139.4889,205.1805 C141.0709,204.6955 142.4749,204.8385 143.7019,205.6055 C144.8189,206.3675 145.6119,207.5175 146.0849,209.0585 C146.5099,210.4495 146.5299,211.7465 146.1419,212.9475 C145.6439,214.4885 144.5269,215.5255 142.7899,216.0575 C140.9739,216.6145 139.4509,216.4425 138.2199,215.5435" id="Fill-51"></path>
                <path d="M132.7632,210.9142 C132.6162,210.3202 132.3852,209.8602 132.0732,209.5332 C131.4812,208.9212 130.6082,208.7262 129.4532,208.9492 C128.9362,209.0492 128.4792,209.2152 128.0842,209.4512 C127.3192,209.9062 127.0102,210.5182 127.1592,211.2852 C127.2702,211.8602 127.5222,212.2362 127.9182,212.4142 C128.3172,212.5862 128.9102,212.6872 129.6972,212.7212 L131.1452,212.7772 C132.0922,212.8132 132.7782,212.9232 133.2032,213.1042 C133.9382,213.4202 134.3902,214.0182 134.5592,214.8942 C134.7422,215.8442 134.5732,216.6842 134.0512,217.4162 C133.5292,218.1482 132.6822,218.6272 131.5112,218.8532 C130.4332,219.0602 129.4662,218.9692 128.6102,218.5802 C127.7532,218.1902 127.2112,217.4082 126.9852,216.2342 L128.3302,215.9752 C128.5082,216.5272 128.7392,216.9332 129.0222,217.1912 C129.5472,217.6622 130.3112,217.8012 131.3132,217.6082 C132.1212,217.4522 132.6682,217.1632 132.9542,216.7402 C133.2412,216.3162 133.3372,215.8712 133.2462,215.4002 C133.1472,214.8832 132.8662,214.5452 132.4012,214.3852 C132.0972,214.2842 131.4402,214.2132 130.4302,214.1682 L128.9292,214.1062 C128.2052,214.0772 127.6282,213.9572 127.1982,213.7462 C126.4512,213.3782 125.9892,212.7242 125.8072,211.7842 C125.5822,210.6142 125.8362,209.6972 126.5692,209.0342 C127.3022,208.3712 128.2182,207.9342 129.3172,207.7222 C130.5982,207.4752 131.6662,207.6172 132.5202,208.1482 C133.3732,208.6762 133.9032,209.5122 134.1082,210.6552 L132.7632,210.9142 Z" id="Fill-53"></path>
                <polygon id="Fill-55" points="124.2856 219.7989 116.5116 220.5169 116.3896 219.2039 122.7496 218.6159 122.4496 215.3629 116.5706 215.9059 116.4566 214.6669 122.3346 214.1229 121.9986 210.4919 115.5296 211.0899 115.4126 209.8129 123.2956 209.0849"></polygon>
                <path d="M107.8159,219.0997 C108.1329,219.2557 108.5709,219.3387 109.1279,219.3477 L112.0069,219.3947 L112.0679,215.6677 L109.1889,215.6207 C108.5389,215.6097 108.0099,215.7407 107.6009,216.0117 C107.1909,216.2847 106.9809,216.7717 106.9699,217.4747 C106.9569,218.2657 107.2389,218.8067 107.8159,219.0997 L107.8159,219.0997 Z M113.4439,220.6707 L108.6299,220.5927 C107.6789,220.5777 106.9149,220.2947 106.3379,219.7457 C105.7619,219.1977 105.4819,218.4347 105.4979,217.4577 C105.5109,216.6187 105.7839,215.8917 106.3159,215.2777 C106.8489,214.6637 107.6529,214.3657 108.7289,214.3827 L112.0879,214.4377 L112.1619,209.8887 L113.6189,209.9117 L113.4439,220.6707 Z" id="Fill-57"></path>
                <polygon id="Fill-59" points="102.7964 220.4405 101.3324 220.2855 101.8004 215.8645 96.3014 215.2815 95.8334 219.7035 94.3694 219.5475 95.5034 208.8475 96.9664 209.0035 96.4374 214.0075 101.9364 214.5895 102.4654 209.5865 103.9294 209.7415"></polygon>
                <path d="M84.7637,207.8312 C83.8887,207.6092 83.2017,207.7012 82.7017,208.1082 C82.3877,208.3662 82.1737,208.7202 82.0587,209.1702 C81.8667,209.9272 82.0767,210.5292 82.6907,210.9772 C83.0167,211.2172 83.4777,211.4122 84.0757,211.5622 L86.9057,212.2812 L87.8377,208.6112 L84.7637,207.8312 Z M84.0187,212.7662 C83.4167,212.6122 82.9267,212.5762 82.5497,212.6562 C81.9577,212.7832 81.5757,213.1852 81.4037,213.8612 C81.2307,214.5432 81.3937,215.0742 81.8927,215.4522 C82.1757,215.6652 82.6267,215.8502 83.2487,216.0082 L85.7957,216.6542 L86.6157,213.4252 L84.0187,212.7662 Z M86.8807,218.1852 L82.3717,217.0392 C81.1427,216.7272 80.3607,216.1412 80.0267,215.2802 C79.8307,214.7722 79.8047,214.2362 79.9477,213.6742 C80.1147,213.0162 80.4387,212.5232 80.9197,212.1972 C81.1707,212.0242 81.5007,211.8922 81.9127,211.8002 C81.4297,211.4612 81.0877,211.1292 80.8877,210.8072 C80.5347,210.2322 80.4597,209.5472 80.6627,208.7462 C80.8327,208.0742 81.1997,207.5202 81.7617,207.0842 C82.6017,206.4312 83.7117,206.2792 85.0927,206.6302 L89.5287,207.7562 L86.8807,218.1852 Z" id="Fill-61"></path>
                <polygon id="Fill-63" points="76.2646 215.3165 68.9236 212.6575 69.3726 211.4185 75.3776 213.5925 76.4906 210.5215 70.9396 208.5115 71.3646 207.3395 76.9146 209.3505 78.1566 205.9215 72.0486 203.7095 72.4846 202.5035 79.9296 205.2005"></polygon>
                <path d="M63.9712,204.9649 C63.3732,204.6759 62.8402,204.5699 62.3722,204.6489 C61.9052,204.7269 61.5162,205.0859 61.2062,205.7289 C60.8722,206.4179 60.8882,207.0059 61.2552,207.4919 C61.4522,207.7499 61.7692,207.9849 62.2052,208.1949 L65.3222,209.7009 L66.9212,206.3909 L63.9712,204.9649 Z M66.0892,211.4629 L61.6852,209.3359 C60.9602,208.9849 60.4142,208.5879 60.0482,208.1459 C59.3542,207.3009 59.2762,206.3219 59.8132,205.2089 C60.0942,204.6289 60.4432,204.2119 60.8612,203.9589 C61.2792,203.7049 61.7582,203.5699 62.2972,203.5549 C61.9932,203.2179 61.8062,202.8779 61.7362,202.5349 C61.6662,202.1919 61.7562,201.7349 62.0062,201.1599 L62.5882,199.8389 C62.7532,199.4629 62.8552,199.1739 62.8932,198.9709 C62.9632,198.6239 62.9182,198.3589 62.7582,198.1719 L62.8642,197.9549 L64.4722,198.7329 C64.4762,198.8379 64.4592,198.9619 64.4222,199.1069 C64.3852,199.2519 64.2832,199.5179 64.1182,199.9029 L63.4162,201.5579 C63.1402,202.2049 63.1642,202.7399 63.4872,203.1619 C63.6732,203.3989 64.0272,203.6429 64.5482,203.8939 L67.4502,205.2969 L69.4582,201.1419 L70.7702,201.7759 L66.0892,211.4629 Z" id="Fill-65"></path>
                <path d="M54.2114,199.5138 C53.6474,199.1618 53.1284,198.9998 52.6554,199.0288 C52.1824,199.0558 51.7574,199.3718 51.3804,199.9778 C50.9764,200.6288 50.9294,201.2148 51.2424,201.7378 C51.4104,202.0148 51.7004,202.2818 52.1114,202.5368 L55.0514,204.3658 L56.9934,201.2438 L54.2114,199.5138 Z M55.6274,206.1998 L51.4744,203.6158 C50.7904,203.1908 50.2904,202.7388 49.9724,202.2588 C49.3724,201.3448 49.3984,200.3638 50.0514,199.3148 C50.3914,198.7678 50.7834,198.3898 51.2254,198.1818 C51.6684,197.9748 52.1584,197.8908 52.6964,197.9318 C52.4304,197.5658 52.2804,197.2068 52.2474,196.8598 C52.2134,196.5108 52.3524,196.0648 52.6614,195.5218 L53.3794,194.2688 C53.5844,193.9118 53.7164,193.6358 53.7764,193.4378 C53.8824,193.1008 53.8654,192.8318 53.7264,192.6298 L53.8544,192.4248 L55.3714,193.3688 C55.3644,193.4728 55.3344,193.5958 55.2814,193.7358 C55.2294,193.8748 55.1004,194.1288 54.8954,194.4958 L54.0224,196.0658 C53.6784,196.6798 53.6454,197.2148 53.9214,197.6678 C54.0814,197.9228 54.4074,198.2028 54.8984,198.5088 L57.6354,200.2118 L60.0734,196.2938 L61.3104,197.0648 L55.6274,206.1998 Z" id="Fill-67"></path>
                <polygon id="Fill-69" points="46.875 200.6622 45.527 199.6252 46.228 193.6412 40.624 195.8532 39.265 194.8082 46.411 192.2012 49.054 188.7652 50.21 189.6532 47.566 193.0902"></polygon>
                <polygon id="Fill-71" points="39.2759 186.8146 36.6279 184.2636 37.5679 183.2896 40.2159 185.8396"></polygon>
                <path d="M30.1748,174.6466 C30.8678,174.0586 31.4928,173.7066 32.0508,173.5856 C33.0738,173.3736 34.0368,173.8006 34.9408,174.8676 C35.4618,175.4826 35.7398,176.1506 35.7768,176.8696 C35.8128,177.5876 35.4038,178.3086 34.5508,179.0316 L33.9638,179.5286 L33.0788,178.4836 L33.6658,177.9866 C34.1128,177.6076 34.3648,177.2226 34.4208,176.8326 C34.4768,176.4416 34.3258,176.0356 33.9688,175.6136 C33.4668,175.0196 32.9338,174.8026 32.3728,174.9636 C32.0288,175.0636 31.5098,175.4066 30.8168,175.9936 L25.3448,180.6266 L24.4118,179.5256 L30.1748,174.6466 Z" id="Fill-73"></path>
                <path d="M25.0713,166.2052 C23.9883,166.2622 22.9543,166.6322 21.9723,167.3162 C20.9343,168.0412 20.2883,168.8952 20.0333,169.8802 C19.7793,170.8642 19.9803,171.8272 20.6363,172.7672 C21.2733,173.6822 22.1073,174.2072 23.1363,174.3462 C24.1663,174.4852 25.2923,174.1292 26.5143,173.2752 C27.4923,172.5942 28.1443,171.7702 28.4703,170.8082 C28.7973,169.8452 28.5733,168.8092 27.7993,167.6992 C27.0643,166.6462 26.1553,166.1482 25.0713,166.2052 M18.7113,169.0742 C19.0843,167.9452 19.8793,166.9552 21.0973,166.1052 C22.4143,165.1872 23.7433,164.7582 25.0823,164.8162 C26.6553,164.8872 27.9483,165.6482 28.9633,167.1012 C29.9103,168.4592 30.2063,169.8402 29.8513,171.2422 C29.4693,172.5392 28.6173,173.6472 27.2963,174.5692 C26.1033,175.4022 24.8753,175.8182 23.6133,175.8182 C21.9923,175.8162 20.6633,175.0722 19.6233,173.5822 C18.5363,172.0232 18.2333,170.5212 18.7113,169.0742" id="Fill-75"></path>
                <path d="M21.4419,162.463 C21.9609,162.141 22.3279,161.779 22.5439,161.383 C22.9439,160.631 22.8609,159.74 22.2939,158.709 C22.0399,158.248 21.7399,157.865 21.3949,157.561 C20.7259,156.974 20.0489,156.868 19.3649,157.244 C18.8519,157.527 18.5709,157.884 18.5239,158.315 C18.4839,158.747 18.5679,159.343 18.7799,160.102 L19.1709,161.497 C19.4279,162.408 19.5349,163.096 19.4929,163.556 C19.4189,164.352 18.9899,164.966 18.2069,165.397 C17.3599,165.863 16.5079,165.96 15.6509,165.689 C14.7939,165.417 14.0779,164.759 13.5029,163.714 C12.9739,162.752 12.7629,161.804 12.8699,160.869 C12.9769,159.934 13.5549,159.179 14.6029,158.602 L15.2629,159.803 C14.7919,160.141 14.4769,160.485 14.3179,160.835 C14.0309,161.479 14.1339,162.248 14.6259,163.143 C15.0229,163.863 15.4669,164.295 15.9569,164.438 C16.4479,164.579 16.9019,164.534 17.3209,164.304 C17.7839,164.05 18.0189,163.678 18.0269,163.187 C18.0299,162.867 17.8969,162.219 17.6279,161.244 L17.2249,159.797 C17.0299,159.1 16.9669,158.514 17.0349,158.039 C17.1559,157.216 17.6359,156.574 18.4749,156.113 C19.5189,155.538 20.4689,155.498 21.3249,155.991 C22.1819,156.484 22.8799,157.222 23.4199,158.202 C24.0479,159.346 24.2409,160.405 23.9979,161.381 C23.7589,162.356 23.1269,163.116 22.1019,163.664 L21.4419,162.463 Z" id="Fill-77"></path>
                <polygon id="Fill-79" points="10.3931 157.1583 7.3181 149.9813 8.5301 149.4633 11.0451 155.3333 14.0481 154.0473 11.7231 148.6203 12.8681 148.1303 15.1921 153.5563 18.5451 152.1203 15.9871 146.1483 17.1651 145.6433 20.2831 152.9223"></polygon>
                <path d="M5.9888,141.294 C5.9408,141.645 6.0008,142.086 6.1688,142.617 L7.0348,145.363 L10.5908,144.24 L9.7238,141.495 C9.5278,140.875 9.2368,140.414 8.8488,140.112 C8.4618,139.811 7.9328,139.766 7.2628,139.977 C6.5088,140.215 6.0838,140.654 5.9888,141.294 L5.9888,141.294 Z M6.2798,147.131 L4.8298,142.539 C4.5438,141.631 4.5698,140.817 4.9078,140.097 C5.2458,139.376 5.8818,138.869 6.8128,138.574 C7.6138,138.322 8.3888,138.352 9.1398,138.662 C9.8908,138.973 10.4278,139.641 10.7528,140.667 L11.7638,143.871 L16.1008,142.501 L16.5398,143.891 L6.2798,147.131 Z" id="Fill-81"></path>
                <polygon id="Fill-83" points="3.187 136.8605 2.89 135.4185 7.244 134.5215 6.128 129.1055 1.774 130.0025 1.477 128.5605 12.015 126.3885 12.312 127.8315 7.384 128.8465 8.499 134.2615 13.428 133.2475 13.725 134.6895"></polygon>
                <path d="M9.7202,115.8399 C9.6652,114.9399 9.3682,114.3129 8.8282,113.9599 C8.4872,113.7379 8.0852,113.6429 7.6222,113.6699 C6.8422,113.7169 6.3322,114.1019 6.0922,114.8219 C5.9642,115.2049 5.9182,115.7039 5.9552,116.3189 L6.1322,119.2349 L9.9122,119.0059 L9.7202,115.8399 Z M4.7932,116.6309 C4.7552,116.0109 4.6412,115.5329 4.4492,115.1989 C4.1482,114.6739 3.6502,114.4319 2.9522,114.4749 C2.2512,114.5169 1.7952,114.8339 1.5872,115.4239 C1.4702,115.7579 1.4312,116.2439 1.4702,116.8849 L1.6292,119.5079 L4.9552,119.3059 L4.7932,116.6309 Z M0.5012,121.0059 L0.2202,116.3629 C0.1432,115.0979 0.4642,114.1739 1.1822,113.5939 C1.6072,113.2539 2.1092,113.0649 2.6892,113.0289 C3.3662,112.9879 3.9342,113.1489 4.3912,113.5059 C4.6322,113.6929 4.8592,113.9669 5.0722,114.3309 C5.2482,113.7679 5.4592,113.3419 5.7062,113.0529 C6.1452,112.5409 6.7762,112.2619 7.5992,112.2109 C8.2922,112.1699 8.9312,112.3499 9.5182,112.7519 C10.3962,113.3539 10.8782,114.3649 10.9642,115.7869 L11.2412,120.3559 L0.5012,121.0059 Z" id="Fill-85"></path>
                <polygon id="Fill-87" points="0 110.0372 0.281 102.2352 1.599 102.2822 1.369 108.6642 4.633 108.7822 4.846 102.8832 6.09 102.9282 5.877 108.8272 9.522 108.9582 9.756 102.4662 11.037 102.5122 10.752 110.4252"></polygon>
                <path d="M6.0767,95.1647 C6.1677,94.5057 6.1047,93.9667 5.8867,93.5457 C5.6687,93.1247 5.2067,92.8657 4.5007,92.7677 C3.7417,92.6627 3.1867,92.8597 2.8367,93.3577 C2.6517,93.6237 2.5267,93.9977 2.4597,94.4777 L1.9857,97.9067 L5.6277,98.4107 L6.0767,95.1647 Z M0.5457,99.1787 L1.2157,94.3337 C1.3257,93.5367 1.5347,92.8947 1.8437,92.4097 C2.4347,91.4897 3.3417,91.1137 4.5657,91.2837 C5.2037,91.3717 5.7077,91.5757 6.0777,91.8957 C6.4477,92.2157 6.7227,92.6287 6.9047,93.1377 C7.1317,92.7447 7.3967,92.4627 7.7017,92.2897 C8.0067,92.1177 8.4707,92.0627 9.0927,92.1237 L10.5287,92.2707 C10.9367,92.3127 11.2437,92.3207 11.4497,92.2947 C11.8007,92.2547 12.0397,92.1297 12.1667,91.9207 L12.4067,91.9537 L12.1617,93.7247 C12.0627,93.7597 11.9387,93.7817 11.7897,93.7907 C11.6407,93.7997 11.3567,93.7857 10.9387,93.7477 L9.1487,93.5887 C8.4477,93.5247 7.9467,93.7117 7.6437,94.1487 C7.4767,94.3987 7.3527,94.8107 7.2737,95.3837 L6.8317,98.5767 L11.4027,99.2087 L11.2027,100.6527 L0.5457,99.1787 Z" id="Fill-89"></path>
                <path d="M8.2607,84.2076 C8.4217,83.5626 8.4157,83.0196 8.2437,82.5776 C8.0717,82.1366 7.6397,81.8296 6.9487,81.6566 C6.2047,81.4716 5.6327,81.6076 5.2317,82.0656 C5.0187,82.3116 4.8547,82.6696 4.7377,83.1396 L3.9017,86.4986 L7.4687,87.3866 L8.2607,84.2076 Z M2.3337,87.6106 L3.5147,82.8646 C3.7097,82.0826 3.9867,81.4676 4.3447,81.0186 C5.0307,80.1656 5.9717,79.8896 7.1707,80.1876 C7.7967,80.3436 8.2757,80.5996 8.6097,80.9576 C8.9437,81.3146 9.1737,81.7556 9.2997,82.2796 C9.5667,81.9136 9.8607,81.6616 10.1817,81.5226 C10.5037,81.3836 10.9707,81.3776 11.5827,81.5046 L12.9957,81.8036 C13.3967,81.8886 13.7007,81.9296 13.9087,81.9256 C14.2617,81.9226 14.5127,81.8246 14.6617,81.6296 L14.8957,81.6886 L14.4647,83.4226 C14.3627,83.4476 14.2367,83.4566 14.0877,83.4496 C13.9387,83.4426 13.6577,83.3976 13.2457,83.3156 L11.4827,82.9676 C10.7927,82.8296 10.2737,82.9616 9.9277,83.3646 C9.7337,83.5956 9.5677,83.9916 9.4277,84.5526 L8.6487,87.6806 L13.1267,88.7956 L12.7737,90.2096 L2.3337,87.6106 Z" id="Fill-91"></path>
                <polygon id="Fill-93" points="4.9209 77.5519 5.4939 75.9519 11.4059 74.7859 7.5819 70.1289 8.1609 68.5149 12.8319 74.5189 16.9139 75.9819 16.4209 77.3539 12.3399 75.8909"></polygon>
                <polygon id="Fill-95" points="15.7769 66.0802 17.3979 62.7802 18.6139 63.3772 16.9929 66.6772"></polygon>
                <path d="M24.5962,53.7008 C25.3662,54.1818 25.8932,54.6708 26.1772,55.1648 C26.6912,56.0748 26.5772,57.1218 25.8362,58.3068 C25.4082,58.9918 24.8572,59.4598 24.1842,59.7128 C23.5102,59.9668 22.6992,59.7968 21.7512,59.2038 L21.0992,58.7958 L21.8252,57.6348 L22.4772,58.0428 C22.9742,58.3528 23.4172,58.4758 23.8062,58.4108 C24.1962,58.3458 24.5372,58.0778 24.8302,57.6088 C25.2422,56.9498 25.2862,56.3768 24.9622,55.8908 C24.7632,55.5938 24.2782,55.2038 23.5082,54.7218 L17.4292,50.9208 L18.1932,49.6978 L24.5962,53.7008 Z" id="Fill-97"></path>
                <path d="M31.0815,46.2735 C30.6975,45.2585 30.0305,44.3875 29.0785,43.6605 C28.0725,42.8925 27.0625,42.5365 26.0475,42.5935 C25.0325,42.6505 24.1755,43.1345 23.4795,44.0465 C22.8035,44.9305 22.5565,45.8845 22.7365,46.9075 C22.9175,47.9305 23.6005,48.8945 24.7845,49.7995 C25.7325,50.5235 26.7145,50.8945 27.7305,50.9125 C28.7475,50.9305 29.6655,50.4015 30.4875,49.3265 C31.2675,48.3065 31.4645,47.2885 31.0815,46.2735 M26.4125,41.0885 C27.6015,41.1005 28.7865,41.5565 29.9655,42.4575 C31.2425,43.4325 32.0555,44.5675 32.4065,45.8615 C32.8185,47.3815 32.4865,48.8445 31.4105,50.2535 C30.4055,51.5685 29.1815,52.2715 27.7375,52.3595 C26.3865,52.3905 25.0705,51.9165 23.7895,50.9385 C22.6335,50.0555 21.8635,49.0125 21.4795,47.8095 C20.9875,46.2665 21.2925,44.7725 22.3955,43.3295 C23.5485,41.8195 24.8875,41.0725 26.4125,41.0885" id="Fill-99"></path>
                <path d="M33.5313,41.6866 C33.9973,42.0826 34.4523,42.3216 34.8973,42.4066 C35.7353,42.5586 36.5583,42.2076 37.3663,41.3536 C37.7283,40.9706 38.0023,40.5686 38.1853,40.1466 C38.5413,39.3306 38.4353,38.6546 37.8683,38.1176 C37.4433,37.7146 37.0173,37.5566 36.5933,37.6426 C36.1683,37.7356 35.6273,37.9986 34.9693,38.4306 L33.7593,39.2296 C32.9693,39.7516 32.3483,40.0626 31.8973,40.1636 C31.1153,40.3356 30.4003,40.1146 29.7513,39.4996 C29.0493,38.8356 28.6973,38.0536 28.6942836,37.1546 C28.6913,36.2556 29.0993,35.3726 29.9203,34.5066 C30.6743,33.7096 31.5133,33.2196 32.4363,33.0366 C33.3593,32.8536 34.2553,33.1736 35.1233,33.9956 L34.1823,34.9906 C33.7153,34.6446 33.2913,34.4506 32.9103,34.4056 C32.2093,34.3286 31.5083,34.6606 30.8073,35.4016 C30.2403,36.0006 29.9643,36.5546 29.9793,37.0646 C29.9933,37.5756 30.1753,37.9946 30.5223,38.3236 C30.9053,38.6866 31.3313,38.7966 31.8023,38.6556 C32.1073,38.5606 32.6833,38.2356 33.5303,37.6826 L34.7843,36.8566 C35.3903,36.4596 35.9293,36.2206 36.4013,36.1406 C37.2223,36.0046 37.9803,36.2666 38.6753,36.9236 C39.5403,37.7436 39.8683,38.6356 39.6593,39.6026 C39.4503,40.5686 38.9623,41.4576 38.1923,42.2706 C37.2953,43.2186 36.3453,43.7256 35.3413,43.7906 C34.3413,43.8606 33.4233,43.4906 32.5903,42.6816 L33.5313,41.6866 Z" id="Fill-101"></path>
                <polygon id="Fill-103" points="35.2266 29.5338 41.1206 24.4128 41.9856 25.4078 37.1636 29.5968 39.3066 32.0628 43.7626 28.1908 44.5796 29.1308 40.1226 33.0028 42.5156 35.7558 47.4196 31.4948 48.2606 32.4628 42.2836 37.6558"></polygon>
                <path d="M48.9517,20.505 C48.6037,20.567 48.2017,20.759 47.7477,21.082 L45.4007,22.75 L47.5597,25.789 L49.9067,24.121 C50.4367,23.745 50.7857,23.326 50.9537,22.865 C51.1227,22.403 51.0037,21.886 50.5967,21.313 C50.1387,20.668 49.5907,20.399 48.9517,20.505 L48.9517,20.505 Z M43.4867,22.573 L47.4107,19.785 C48.1867,19.234 48.9697,19.008 49.7597,19.109 C50.5497,19.21 51.2267,19.658 51.7927,20.454 C52.2787,21.139 52.4897,21.886 52.4247,22.696 C52.3597,23.506 51.8887,24.223 51.0107,24.846 L48.2727,26.792 L50.9067,30.5 L49.7187,31.344 L43.4867,22.573 Z" id="Fill-105"></path>
                <polygon id="Fill-107" points="52.3223 16.4684 53.6033 15.7424 55.7963 19.6094 60.6063 16.8824 58.4133 13.0144 59.6943 12.2884 65.0013 21.6484 63.7203 22.3744 61.2383 17.9974 56.4283 20.7244 58.9103 25.1014 57.6293 25.8274"></polygon>
                <path d="M74.3394,16.2213 C75.1794,15.8933 75.6844,15.4183 75.8544,14.7963 C75.9604,14.4043 75.9284,13.9913 75.7594,13.5593 C75.4754,12.8313 74.9534,12.4643 74.1944,12.4563 C73.7904,12.4523 73.3014,12.5613 72.7274,12.7853 L70.0064,13.8483 L71.3844,17.3753 L74.3394,16.2213 Z M72.0734,11.7753 C72.6524,11.5493 73.0724,11.2933 73.3314,11.0093 C73.7394,10.5613 73.8164,10.0123 73.5624,9.3623 C73.3064,8.7063 72.8654,8.3703 72.2384,8.3533 C71.8854,8.3443 71.4104,8.4563 70.8134,8.6903 L68.3654,9.6453 L69.5784,12.7493 L72.0734,11.7753 Z M66.5934,9.0333 L70.9264,7.3403 C72.1074,6.8793 73.0844,6.9013 73.8574,7.4073 C74.3114,7.7063 74.6444,8.1263 74.8564,8.6673 C75.1034,9.3003 75.1254,9.8883 74.9244,10.4333 C74.8214,10.7203 74.6294,11.0203 74.3484,11.3353 C74.9394,11.3293 75.4094,11.4003 75.7604,11.5463 C76.3814,11.8073 76.8414,12.3223 77.1414,13.0903 C77.3944,13.7363 77.4184,14.4003 77.2154,15.0823 C76.9124,16.1023 76.0974,16.8713 74.7704,17.3893 L70.5074,19.0543 L66.5934,9.0333 Z" id="Fill-109"></path>
                <polygon id="Fill-111" points="76.8867 5.191 84.4037 3.082 84.7607 4.351 78.6107 6.077 79.4937 9.222 85.1777 7.627 85.5137 8.825 79.8297 10.42 80.8157 13.932 87.0707 12.177 87.4167 13.411 79.7937 15.55"></polygon>
                <path d="M92.918,6.4537 C93.573,6.3407 94.068,6.1167 94.403,5.7817 C94.738,5.4457 94.845,4.9277 94.724,4.2247 C94.593,3.4697 94.238,3.0007 93.657,2.8177 C93.346,2.7237 92.953,2.7167 92.476,2.7987 L89.064,3.3877 L89.689,7.0107 L92.918,6.4537 Z M87.415,2.4017 L92.234,1.5697 C93.028,1.4327 93.703,1.4377 94.258,1.5847 C95.314,1.8687 95.948,2.6187 96.158,3.8357 C96.268,4.4717 96.226,5.0137 96.033,5.4627 C95.841,5.9117 95.53,6.3007 95.101,6.6267 C95.544,6.7247 95.894,6.8917 96.15,7.1297 C96.407,7.3687 96.6,7.7927 96.731,8.4047 L97.026,9.8177 C97.111,10.2197 97.196,10.5147 97.283,10.7027 C97.428,11.0247 97.619,11.2147 97.857,11.2727 L97.898,11.5107 L96.137,11.8147 C96.073,11.7317 96.015,11.6207 95.961,11.4807 C95.907,11.3417 95.835,11.0667 95.744,10.6557 L95.353,8.9027 C95.2,8.2157 94.87,7.7947 94.362,7.6397 C94.073,7.5557 93.643,7.5627 93.073,7.6607 L89.896,8.2087 L90.681,12.7557 L89.245,13.0037 L87.415,2.4017 Z" id="Fill-113"></path>
                <path d="M104.0073,5.2081 C104.6713,5.1651 105.1863,4.9941 105.5553,4.6961 C105.9233,4.3981 106.0843,3.8941 106.0383,3.1821 C105.9883,2.4171 105.6843,1.9141 105.1263,1.6711 C104.8273,1.5431 104.4363,1.4961 103.9533,1.5271 L100.4993,1.7521 L100.7383,5.4211 L104.0073,5.2081 Z M98.9633,0.5971 L103.8433,0.2791 C104.6473,0.2271 105.3173,0.3031 105.8543,0.5081 C106.8753,0.9011 107.4253,1.7141 107.5053,2.9471 C107.5473,3.5901 107.4483,4.1251 107.2103,4.5521 C106.9713,4.9791 106.6213,5.3321 106.1593,5.6111 C106.5903,5.7541 106.9203,5.9581 107.1503,6.2221 C107.3803,6.4861 107.5283,6.9291 107.5923,7.5511 L107.7373,8.9871 C107.7783,9.3951 107.8333,9.6981 107.8993,9.8941 C108.0093,10.2291 108.1793,10.4381 108.4103,10.5211 L108.4253,10.7631 L106.6423,10.8791 C106.5883,10.7901 106.5413,10.6731 106.5023,10.5281 C106.4633,10.3841 106.4213,10.1031 106.3743,9.6861 L106.1693,7.9001 C106.0903,7.2011 105.8063,6.7471 105.3183,6.5401 C105.0393,6.4251 104.6113,6.3871 104.0333,6.4251 L100.8173,6.6341 L101.1173,11.2391 L99.6623,11.3331 L98.9633,0.5971 Z" id="Fill-115"></path>
                <polygon id="Fill-117" points="109.314 0.0001 111.013 0.0561 113.934 5.3261 117.196 0.2591 118.909 0.3151 114.626 6.6011 114.483 10.9351 113.026 10.8871 113.168 6.5531"></polygon>
                <polygon id="Fill-119" points="123.5415 6.8106 127.1805 7.3376 126.9845 8.6786 123.3465 8.1516"></polygon>
            </g>
        </g>
    </g>
</svg>